<svg xmlns="http://www.w3.org/2000/svg" width="230" height="83" viewBox="0 0 230 83" fill="none">
  <circle cx="112" cy="55.5" r="2" fill="#FE6C5F" fill-opacity="0.25"/>
  <circle cx="116" cy="55.5" r="2" fill="#FE6C5F" fill-opacity="0.25"/>
  <circle cx="120" cy="55.5" r="2" fill="#FE6C5F" fill-opacity="0.25"/>
  <rect y="41.5" width="230" height="41" fill="#757575" fill-opacity="0.5"/>
  <circle cx="94.5" cy="14" r="6.5" fill="#757575" fill-opacity="0.5"/>
  <path d="M134.695 35.6119C104.031 17.2059 66.1218 43.0555 53 53.2811H209L230 35.6119C229.137 31.8523 222.334 23.6113 202.03 20.7241C176.65 17.1151 173.024 58.6194 134.695 35.6119Z" fill="#757575" fill-opacity="0.5"/>
  <path d="M168.75 15.4344C155.083 12.7842 137.222 40.5558 130 54.7728L230 58.5V34.4818C229.167 4.25328 207.917 0.112392 198.75 0.526481C189.583 0.94057 185.833 18.7471 168.75 15.4344Z" fill="#757575" fill-opacity="0.5"/>
  <path d="M43.8686 45.4674C10.4476 48.6761 -0.228538 35.2174 -1.38899 28.087L-4 57.5H241V16.5C231.426 28.9783 204.62 51.0826 173.984 39.6739C135.689 25.413 115.671 45.4674 86.0799 51.7065C56.4885 57.9457 85.6448 41.4565 43.8686 45.4674Z" fill="#757575"/>
</svg>
