<svg xmlns="http://www.w3.org/2000/svg" width="230" height="85" viewBox="0 0 230 85" fill="none">
  <rect y="43.5" width="230" height="41" fill="#FE6C5F" fill-opacity="0.5"/>
  <circle cx="117" cy="0.5" r="11" fill="#FE6C5F" fill-opacity="0.5"/>
  <path d="M1.18829 33.1377L1.00018 33.2843H157L178 15.6151C177.137 11.8555 186.804 13.3882 166.5 10.501C141.12 6.89198 107.83 45.0083 69.5002 22.0008C38.9826 3.68239 14.3573 22.8743 1.18829 33.1377Z" fill="#FE6C5F" fill-opacity="0.5"/>
  <path d="M51.5002 3.49543C30.0002 2.49486 -12.7776 26.2737 -19.9998 40.4907L230 40.4905V16.4723C229.167 -13.7562 129 33.4961 101 19.4961C73.0002 5.49607 73.0002 4.49601 51.5002 3.49543Z" fill="#FE6C5F" fill-opacity="0.25"/>
  <path d="M19.3423 10C-14.0271 13.8258 -9.84134 39.4707 -11 30.9691V93H241V-5.5C235.009 30.9691 180.229 42.0834 149.641 28.4808C111.405 11.4774 110.293 18.061 80.7469 25.5C51.201 32.939 61.0541 5.21781 19.3423 10Z" fill="#FE6C5F"/>
</svg>
