<svg width="1920" height="1920" viewBox="0 0 1920 1920" fill="none" xmlns="http://www.w3.org/2000/svg">
<rect width="1920" height="1920" fill="#FE6C5F"/>
<path d="M960 1910C1484.67 1910 1910 1484.67 1910 960C1910 435.329 1484.67 10 960 10C435.329 10 10 435.329 10 960C10 1484.67 435.329 1910 960 1910Z" fill="#FE6C5F"/>
<path d="M1485.88 1008.75C1513.13 981.493 1513.13 937.299 1485.88 910.04C1458.62 882.782 1414.42 882.782 1387.16 910.04C1359.91 937.299 1359.91 981.493 1387.16 1008.75C1414.42 1036.01 1458.62 1036.01 1485.88 1008.75Z" fill="white"/>
<path d="M461 1007.2C487.123 1007.2 508.3 986.023 508.3 959.9C508.3 933.777 487.123 912.6 461 912.6C434.877 912.6 413.7 933.777 413.7 959.9C413.7 986.023 434.877 1007.2 461 1007.2Z" fill="white"/>
<path d="M1138.5 1085.9C1138.5 1111.9 1159.6 1133.2 1185.8 1133.2C1212 1133.2 1233.1 1112.1 1233.1 1085.9C1232.9 1059.9 1211.8 1038.6 1185.8 1038.6C1159.8 1038.6 1138.5 1059.6 1138.5 1085.9Z" fill="white"/>
<path d="M666.5 912.6C666.3 886.6 645.2 865.3 619.2 865.3C593.2 865.3 571.9 886.4 571.9 912.6C571.9 938.6 593 959.9 619.2 959.9C645.4 959.9 666.5 938.8 666.5 912.6Z" fill="white"/>
<path d="M709 1275.2L1004.7 1034.6C1009.1 1031.3 1014.5 1029.3 1020.4 1029.3C1024.5 1029.3 1028.4 1030.3 1031.8 1032C1032.8 1032.5 1033.8 1032.9 1034.8 1033.4C1070.4 1048.2 1111.2 1031.2 1126 995.6C1132 981 1132.8 965.5 1129.1 951.3C1128.8 949.6 1128.5 948 1128.5 946.2C1128.5 937.7 1132.6 930.2 1138.8 925.4L1240.4 842.8C1249.3 834.7 1261 829.8 1273.9 829.8C1278.9 829.8 1283.6 830.6 1288.1 831.9C1293.7 834 1299.7 835.2 1306.1 835.2C1333.6 835.2 1355.7 812.9 1355.7 785.6C1355.7 783.3 1355.5 781.3 1355.3 779.2C1355.1 777.1 1354.9 775.3 1354.9 773.2C1354.9 758.3 1361.5 744.9 1371.8 735.8L1374.9 733.3C1374.9 733.3 1375.1 733.3 1375.1 733.1L1399.7 713.3C1440.4 679.2 1455.7 623.9 1437.9 573.7C1419.9 522.9 1372.6 489.7 1318.8 489.7H534.1V644.8H1211L811.1 970.2C807.3 973.2 802.5 975 797.2 975C792.7 975 788.6 973.7 785.1 971.4C781.5 969 777.6 966.9 773.5 965.2C737.9 950.4 697.1 967.4 682.3 1003C676.3 1017.5 675.5 1032.9 679.2 1047.1C679.6 1049.6 679.9 1052.1 679.9 1054.7C679.9 1067.8 674.6 1079.6 666.1 1088.2L520.8 1206.4C479.5 1240.1 464.4 1296 482.2 1346.2C500.2 1397 547.5 1430.2 601.3 1430.2H1386V1275.1H709V1275.2Z" fill="white"/>
</svg>
