<svg width="24" height="24" viewBox="0 0 24 24" fill="none" xmlns="http://www.w3.org/2000/svg">
<path d="M18 3.5C18.7956 3.5 19.5587 3.81607 20.1213 4.37868C20.6839 4.94129 21 5.70435 21 6.5V14.5C21 15.2956 20.6839 16.0587 20.1213 16.6213C19.5587 17.1839 18.7956 17.5 18 17.5H13L8 20.5V17.5H6C5.20435 17.5 4.44129 17.1839 3.87868 16.6213C3.31607 16.0587 3 15.2956 3 14.5V6.5C3 5.70435 3.31607 4.94129 3.87868 4.37868C4.44129 3.81607 5.20435 3.5 6 3.5H18Z" stroke="#4A00E0" stroke-width="1.5" stroke-linecap="round" stroke-linejoin="round"/>
<path d="M8.29844 7.03492C9.87622 7.06783 11.463 7.02631 13.0417 7.02303C13.7922 7.02148 14.6045 6.95896 15.3443 7.08258C15.61 7.12698 15.7973 7.21449 15.9564 7.44001C16.1241 7.67764 16.1873 7.98687 16.1359 8.27219C16.1 8.47141 15.9857 8.62702 15.85 8.77137C15.0736 9.59718 14.0579 10.3042 13.1774 11.0214C12.0568 11.9342 10.9451 12.9357 9.7514 13.7489L15.6777 13.751L15.6756 15.0059C14.3088 15.0059 11.6363 15.0059 11.6363 15.0059C11.6363 15.0059 9.62234 14.965 8.57553 14.965C8.3473 14.9193 8.17345 14.8661 8.0391 14.6603C7.85333 14.3758 7.80833 13.9972 7.88003 13.6702C7.99367 13.1519 13.4727 8.78932 14.2127 8.31705C12.2532 8.28926 10.2911 8.30756 8.33126 8.30536L8.29844 7.03492Z" fill="#4A00E0"/>
</svg>
