<?xml version="1.0" encoding="utf-8"?>
<!-- Generator: Adobe Illustrator 28.1.0, SVG Export Plug-In . SVG Version: 6.00 Build 0)  -->
<svg version="1.1" id="Layer_1" xmlns="http://www.w3.org/2000/svg" xmlns:xlink="http://www.w3.org/1999/xlink" x="0px" y="0px"
	 viewBox="0 0 1920 1080" style="enable-background:new 0 0 1920 1080;" xml:space="preserve">
<style type="text/css">
	.st0{fill:#4A00E0;}
	.st1{fill:url(#SVGID_1_);}
	.st2{fill:url(#SVGID_00000076587255205799735620000004191362135037728692_);}
	.st3{fill:url(#SVGID_00000103236286814178159160000004330178645578415489_);}
	.st4{fill:url(#SVGID_00000132085969555615423640000002106905788657711264_);}
</style>
<g>
	<path class="st0" d="M317.1,422.8H122.2v38.5h168.1L118.9,600.7c-10.3,8.4-14,22.3-9.6,34.7c4.5,12.6,16.2,20.9,29.6,20.9h194.9
		v-38.5H165.7l171.4-139.5c10.2-8.4,14-22.2,9.5-34.7C342.2,431.1,330.5,422.8,317.1,422.8z"/>
	<path class="st0" d="M679.6,569.6c0,26.5-21.7,48.2-48.2,48.2h-82.7c-26.5,0-48.2-21.7-48.2-48.2V422.8H462v146.8
		c0,47.7,39,86.8,86.8,86.8h82.7c47.7,0,86.8-39,86.8-86.8V422.8h-38.5v146.8H679.6z"/>
	<path class="st0" d="M1776.6,422.8v146.8c0,26.5-21.7,48.2-48.2,48.2h-82.7c-26.5,0-48.2-21.7-48.2-48.2V422.8H1559v45.8v0.5
		c0,4.5-2.4,8.4-6,10.6l0,0c-3.8,2.1-6.3,6.1-6.3,10.7c0,4.9,2.9,9.1,7,11.1v0.1c3.1,1.1,5.3,4,5.3,7.5c0,3.5-2.2,6.4-5.3,7.5l0,0
		c-7,2.2-12,8.8-12,16.5c0,7.3,4.5,13.6,11,16.1c3.8,2,6.4,5.9,6.4,10.4v9.9c0,47.7,39,86.8,86.8,86.8h82.7
		c47.7,0,86.8-39,86.8-86.8V422.8H1776.6z"/>
	
		<linearGradient id="SVGID_1_" gradientUnits="userSpaceOnUse" x1="1195.5636" y1="724.1433" x2="1729.4673" y2="402.4321" gradientTransform="matrix(1 0 0 -1 0 1082.1101)">
		<stop  offset="0.2429" style="stop-color:#4A00E0"/>
		<stop  offset="0.38" style="stop-color:#4A00E0"/>
		<stop  offset="0.6105" style="stop-color:#066CFF"/>
		<stop  offset="0.69" style="stop-color:#0A93E8"/>
	</linearGradient>
	<circle class="st1" cx="1486.4" cy="533.2" r="17.3"/>
	<path class="st0" d="M1121.5,478.1c-6.8,0-12.3,5.5-12.3,12.3s5.5,12.3,12.3,12.3s12.3-5.5,12.3-12.3S1128.3,478.1,1121.5,478.1z"
		/>
	
		<linearGradient id="SVGID_00000134237414134104194420000015057557268110523537_" gradientUnits="userSpaceOnUse" x1="1208.6058" y1="745.7883" x2="1742.5096" y2="424.0771" gradientTransform="matrix(1 0 0 -1 0 1082.1101)">
		<stop  offset="0.2429" style="stop-color:#4A00E0"/>
		<stop  offset="0.38" style="stop-color:#4A00E0"/>
		<stop  offset="0.6105" style="stop-color:#066CFF"/>
		<stop  offset="0.69" style="stop-color:#0A93E8"/>
	</linearGradient>
	<path style="fill:url(#SVGID_00000134237414134104194420000015057557268110523537_);" d="M1476.8,490.5c0-6.8-5.5-12.3-12.3-12.3
		s-12.3,5.5-12.3,12.3s5.5,12.3,12.3,12.3S1476.8,497.3,1476.8,490.5z"/>
	<path class="st0" d="M1149.5,570.8c-6.5,0-11.7,5.3-11.7,11.7c0,6.5,5.3,11.7,11.7,11.7s11.7-5.3,11.7-11.7
		C1161.3,576.1,1156,570.8,1149.5,570.8z"/>
	
		<linearGradient id="SVGID_00000133517009893190851520000005366433944855968643_" gradientUnits="userSpaceOnUse" x1="1147.8553" y1="644.9682" x2="1681.759" y2="323.257" gradientTransform="matrix(1 0 0 -1 0 1082.1101)">
		<stop  offset="0.2429" style="stop-color:#4A00E0"/>
		<stop  offset="0.38" style="stop-color:#4A00E0"/>
		<stop  offset="0.6105" style="stop-color:#066CFF"/>
		<stop  offset="0.69" style="stop-color:#0A93E8"/>
	</linearGradient>
	<path style="fill:url(#SVGID_00000133517009893190851520000005366433944855968643_);" d="M1451.6,573.2c-2.2-2.1-3.6-5.1-3.6-8.4
		c0-0.1,0-0.2,0-0.3l0,0v-54.9c0-47.7-39.1-86.8-86.8-86.8h-87c-34.4,0-64.4,20.4-78.3,49.6l0,0c-1.4,2.9-4,5.2-7.1,6.3
		c-5.1,1.5-8.8,6.2-8.8,11.8c0,4.2,2.1,7.9,5.3,10.1l0,0c1.2,0.8,2.2,1.8,2.8,3.1l0.1,0.1c0.1,0.3,0.3,0.6,0.4,0.8c0,0,0,0,0,0.1
		c0.1,0.3,0.2,0.6,0.3,0.9c0,0.1,0,0.1,0,0.2c0.1,0.3,0.1,0.6,0.2,0.9c0,0.1,0,0.1,0,0.2c0,0.3,0.1,0.7,0.1,1c0,0.2,0,0.5,0,0.7v0.1
		c-0.2,1.7-0.8,3.2-1.7,4.5l0,0c-1,1.4-2.4,2.4-4.1,3.1c-7.6,1.8-13.2,8.7-13.2,16.8c0,7.1,4.2,13.2,10.3,15.8l0,0
		c4.1,1.8,7,5.9,7,10.7l0,0l0,0v9.8c0,47.7,39.1,86.8,86.8,86.8h87c37,0,68.8-23.5,81.2-56.3l0,0c1.2-3,3.5-5.4,6.5-6.6l0,0
		c4.3-1.7,7.3-5.9,7.3-10.9C1456.3,578.7,1454.5,575.4,1451.6,573.2z M1409.5,569.6c0,26.5-21.7,48.2-48.2,48.2h-87
		c-26.5,0-48.2-21.7-48.2-48.2v-60c0-26.5,21.7-48.2,48.2-48.2h87c26.5,0,48.2,21.7,48.2,48.2V569.6z M1295.8,504.2
		c-8.3,0-15.6,4.4-19.5,11.7l-31.4,59h23.5l26.2-49.3c0.3-0.6,0.5-0.7,1.2-0.7s0.9,0.1,1.2,0.7l26.2,49.3h23.5l-31.4-59
		C1311.4,508.6,1304.2,504.2,1295.8,504.2z M1360.7,504.2v70.7h20.7v-70.7L1360.7,504.2L1360.7,504.2z"/>
	
		<linearGradient id="SVGID_00000160149256256429928390000013679470573687589823_" gradientUnits="userSpaceOnUse" x1="1181.9424" y1="701.5381" x2="1715.8462" y2="379.827" gradientTransform="matrix(1 0 0 -1 0 1082.1101)">
		<stop  offset="0.2429" style="stop-color:#4A00E0"/>
		<stop  offset="0.38" style="stop-color:#4A00E0"/>
		<stop  offset="0.6105" style="stop-color:#066CFF"/>
		<stop  offset="0.69" style="stop-color:#0A93E8"/>
	</linearGradient>
	<path style="fill:url(#SVGID_00000160149256256429928390000013679470573687589823_);" d="M1517.1,570.8c-6.5,0-11.7,5.3-11.7,11.7
		c0,6.5,5.3,11.7,11.7,11.7c6.5,0,11.7-5.3,11.7-11.7S1523.5,570.8,1517.1,570.8z"/>
	<path class="st0" d="M1086.6,516L1086.6,516c-5.7-1-10.1-6-10.1-12l0,0v-53.7v-27.5H1038v146.6h0.1V606c0,6.5-5.3,11.8-11.8,11.8
		h-5.5c-6.3-0.2-12-3.9-14.7-9.7l-29.6-63.4l0,0l-42-90.1c-0.5-1.1-1.1-2.2-1.6-3.2c-2.3-4.1-5.1-7.9-8.3-11.4
		c-10-10.5-23.9-16.8-38.4-17.3h-13.1c-24.3,0-44.1,19.7-44.1,44.1v162l0.1,27.5h38.5V509.7h-0.1v-36.6c0-6.5,5.3-11.8,11.8-11.8
		h5.5c6.3,0.2,12,3.9,14.7,9.7l29.6,63.4l0,0l42,90.1c0.5,1.1,1.1,2.2,1.6,3.2c2.3,4.1,5.1,8,8.3,11.4c10,10.5,23.9,16.8,38.4,17.3
		h13.1c24.3,0,44.1-19.7,44.1-44.1V602l0,0c0-0.1,0-0.3,0-0.4c0-3.9,2-7.4,4.9-9.6l0,0c2.9-2.1,4.7-5.5,4.7-9.4
		c0-4.3-2.3-8.1-5.8-10.1l0,0c-1.5-0.9-2.9-2.1-3.9-3.5l0,0c-0.5-0.7-0.9-1.5-1.2-2.3c0,0,0-0.1-0.1-0.1c-0.1-0.2-0.2-0.4-0.2-0.7
		c0-0.1,0-0.1-0.1-0.2c-0.1-0.2-0.1-0.4-0.2-0.6c0-0.1,0-0.2-0.1-0.3c0-0.2-0.1-0.4-0.1-0.6c0-0.1,0-0.2,0-0.3
		c0-0.2-0.1-0.4-0.1-0.6c0-0.1,0-0.2,0-0.3c0-0.3,0-0.6,0-0.9c0-0.4,0-0.7,0.1-1.1c0-0.1,0-0.2,0-0.4s0.1-0.5,0.1-0.7
		c0-0.1,0.1-0.3,0.1-0.4c0-0.2,0.1-0.4,0.1-0.6c0-0.1,0.1-0.3,0.1-0.4c0.1-0.2,0.1-0.4,0.2-0.5c0.1-0.3,0.2-0.5,0.3-0.8
		c0.1-0.2,0.1-0.3,0.2-0.5s0.2-0.3,0.3-0.5c0.1-0.1,0.1-0.2,0.2-0.4s0.2-0.3,0.3-0.5c1.9-2.8,5-4.7,8.5-5.1
		c9.1-0.5,16.4-8,16.4-17.3l0,0C1101.3,524.5,1094.9,517.3,1086.6,516z"/>
</g>
</svg>
